<svg width="305" height="156" viewBox="0 0 305 156" fill="none" xmlns="http://www.w3.org/2000/svg">
<rect width="305" height="156" fill="#0F1117"/>
<path d="M104 61H111.552L119.529 77.7969H119.869L127.845 61H135.398V86H129.458V69.728H129.217L121.721 85.8779H117.676L110.181 69.667H109.94V86H104V61Z" fill="#3C67E7"/>
<path d="M148.464 61L155.465 79.9941H155.734L162.749 61H169.537L164.545 73.5L159.552 86H151.66L141.661 61H148.464Z" fill="#3C67E7"/>
<path d="M176.086 85.8779V75.6779C176.086 74.1196 176.246 72.8304 176.564 71.8104C176.908 70.7621 177.24 69.9067 178 69H181.867H185.5C184.299 70.1617 183.598 71.3146 183.108 72.5329C182.643 73.7513 182.41 75.2954 182.41 77.1654V85.8779H176.086Z" fill="#3C67E7"/>
<path d="M193 86C192.338 84.9517 191.993 83.5971 191.552 82.1804C191.111 80.7354 190.89 79.1063 190.89 77.2929C190.89 75.5646 191.049 74.0346 191.368 72.7029C191.687 71.3713 192.338 70.2183 193 69H193.5H194.5H196.5L200.632 68.9954V69C199.554 70.3033 198.721 71.5413 198.132 72.8729C197.544 74.2046 197 75.8283 197 77.5C197 79.1433 197.593 80.5371 198.28 81.9254C198.966 83.2854 199.873 84.7817 201 86H197H193Z" fill="#4C8DFF"/>
<path d="M159.226 86C158.565 84.9517 158.013 83.7192 157.572 82.3025C157.131 80.8575 157 79.3133 157 77.5C157 75.7717 158.181 74.8317 158.5 73.5C158.819 72.1683 160.463 70.2183 161.124 69H166C164.922 70.3033 164.741 71.6633 164.153 72.995C163.565 74.3267 163.27 75.8283 163.27 77.5C163.27 79.1433 163.614 80.6592 164.3 82.0475C164.986 83.4075 165.873 84.7817 167 86H167.02H159.226Z" fill="#8AB4FF"/>
<path d="M129.732 86V75.8C129.732 74.2417 129.891 72.9525 130.21 71.9325C130.553 70.8842 131.104 69.9067 131.864 69H139C137.799 70.1617 137.244 71.4367 136.754 72.655C136.288 73.8733 136 75.63 136 77.5V86H129.732Z" fill="#8AB4FF"/>
<path d="M104 61H111.552L119.529 77.7969H119.869L127.845 61H135.398V86H129.458V69.728H129.217L121.721 85.8779H117.676L110.181 69.667H109.94V86H104V61Z" fill="#E6EDF3"/>
<path d="M148.464 61L155.465 79.9941L155.5 80L155.734 79.9941L162.749 61H169.537L164.545 73.5L159.552 86H151.66L141.661 61H148.464Z" fill="#E6EDF3"/>
<path d="M176 86V80.8692V78.5V75.5C176 73.9417 176.246 72.8304 176.564 71.8104C176.908 70.7621 177.74 69.9067 178.5 69H182H185.5C184.299 70.1617 183.598 71.3146 183.108 72.5329C182.643 73.7513 182.41 75.2954 182.41 77.1654V86H179.5H176Z" fill="#4C8DFF"/>
<path d="M192.952 85.8779C192.291 84.8296 191.739 83.5971 191.298 82.1804C190.857 80.7354 190.636 79.1063 190.636 77.2929C190.636 75.5646 190.796 74.0346 191.114 72.7029C191.433 71.3713 192.084 70.2183 192.746 69H193.246H194.246H196.246H198.246H199.246H200.379C199.3 70.3033 198.467 71.5413 197.879 72.8729C197.29 74.2046 196.996 75.7063 196.996 77.3779C196.996 79.0213 197.339 80.5371 198.026 81.9254C198.712 83.2854 199.619 84.5746 200.746 85.7929V85.8779H192.952Z" fill="#4C8DFF"/>
<path d="M121.138 97.3636H121.663L122.899 100.382H122.942L124.177 97.3636H124.703V101H124.291V98.2372H124.256L123.119 101H122.721L121.585 98.2372H121.55V101H121.138V97.3636ZM126.179 101V98.2727H126.598V101H126.179ZM126.392 97.8182C126.31 97.8182 126.24 97.7904 126.181 97.7347C126.123 97.6791 126.094 97.6122 126.094 97.5341C126.094 97.456 126.123 97.3891 126.181 97.3335C126.24 97.2778 126.31 97.25 126.392 97.25C126.474 97.25 126.544 97.2778 126.602 97.3335C126.661 97.3891 126.69 97.456 126.69 97.5341C126.69 97.6122 126.661 97.6791 126.602 97.7347C126.544 97.7904 126.474 97.8182 126.392 97.8182ZM128.435 99.3594V101H128.016V98.2727H128.42V98.6989H128.456C128.52 98.5604 128.617 98.4491 128.747 98.3651C128.877 98.2798 129.045 98.2372 129.251 98.2372C129.436 98.2372 129.598 98.2751 129.736 98.3509C129.875 98.4254 129.982 98.5391 130.059 98.6918C130.136 98.8433 130.175 99.035 130.175 99.267V101H129.756V99.2955C129.756 99.0812 129.7 98.9143 129.589 98.7947C129.477 98.674 129.325 98.6136 129.131 98.6136C128.997 98.6136 128.877 98.6426 128.772 98.7006C128.668 98.7586 128.586 98.8433 128.525 98.9545C128.465 99.0658 128.435 99.2008 128.435 99.3594ZM131.59 101V98.2727H132.009V101H131.59ZM131.803 97.8182C131.722 97.8182 131.651 97.7904 131.592 97.7347C131.534 97.6791 131.505 97.6122 131.505 97.5341C131.505 97.456 131.534 97.3891 131.592 97.3335C131.651 97.2778 131.722 97.25 131.803 97.25C131.885 97.25 131.955 97.2778 132.013 97.3335C132.072 97.3891 132.102 97.456 132.102 97.5341C132.102 97.6122 132.072 97.6791 132.013 97.7347C131.955 97.7904 131.885 97.8182 131.803 97.8182ZM133.427 101V98.2727H133.832V98.6989H133.867C133.924 98.5533 134.016 98.4402 134.142 98.3597C134.269 98.2781 134.421 98.2372 134.599 98.2372C134.779 98.2372 134.928 98.2781 135.048 98.3597C135.169 98.4402 135.263 98.5533 135.33 98.6989H135.359C135.429 98.558 135.533 98.4461 135.673 98.3633C135.813 98.2792 135.98 98.2372 136.175 98.2372C136.419 98.2372 136.619 98.3136 136.774 98.4663C136.929 98.6178 137.006 98.8539 137.006 99.1747V101H136.587V99.1747C136.587 98.9735 136.532 98.8297 136.422 98.7433C136.312 98.6568 136.183 98.6136 136.033 98.6136C135.842 98.6136 135.693 98.6716 135.588 98.7876C135.482 98.9025 135.43 99.0481 135.43 99.2244V101H135.004V99.1321C135.004 98.977 134.953 98.8522 134.853 98.7575C134.752 98.6616 134.622 98.6136 134.464 98.6136C134.355 98.6136 134.253 98.6426 134.158 98.7006C134.065 98.7586 133.989 98.8391 133.931 98.9421C133.874 99.0439 133.846 99.1617 133.846 99.2955V101H133.427ZM139.225 101.064C139.052 101.064 138.895 101.031 138.755 100.966C138.614 100.9 138.502 100.805 138.419 100.68C138.336 100.555 138.295 100.403 138.295 100.226C138.295 100.07 138.326 99.9429 138.387 99.8459C138.449 99.7476 138.531 99.6707 138.634 99.6151C138.737 99.5594 138.85 99.518 138.975 99.4908C139.1 99.4624 139.226 99.4399 139.353 99.4233C139.519 99.402 139.653 99.386 139.756 99.3754C139.86 99.3635 139.936 99.344 139.983 99.3168C140.032 99.2895 140.056 99.2422 140.056 99.1747V99.1605C140.056 98.9853 140.008 98.8492 139.912 98.7521C139.818 98.6551 139.674 98.6065 139.481 98.6065C139.281 98.6065 139.124 98.6503 139.01 98.7379C138.897 98.8255 138.817 98.919 138.771 99.0185L138.373 98.8764C138.444 98.7107 138.539 98.5817 138.657 98.4893C138.777 98.3958 138.907 98.3307 139.048 98.294C139.19 98.2562 139.329 98.2372 139.467 98.2372C139.554 98.2372 139.655 98.2479 139.768 98.2692C139.883 98.2893 139.994 98.3313 140.1 98.3952C140.208 98.4592 140.298 98.5556 140.369 98.6847C140.44 98.8137 140.475 98.9865 140.475 99.2031V101H140.056V100.631H140.035C140.006 100.69 139.959 100.753 139.893 100.821C139.826 100.888 139.738 100.946 139.628 100.993C139.518 101.04 139.384 101.064 139.225 101.064ZM139.289 100.688C139.455 100.688 139.594 100.655 139.708 100.59C139.823 100.525 139.909 100.441 139.967 100.338C140.027 100.235 140.056 100.126 140.056 100.013V99.6293C140.038 99.6506 139.999 99.6701 139.939 99.6879C139.88 99.7044 139.811 99.7192 139.733 99.7322C139.656 99.7441 139.581 99.7547 139.507 99.7642C139.435 99.7725 139.377 99.7796 139.332 99.7855C139.223 99.7997 139.121 99.8228 139.026 99.8548C138.933 99.8855 138.857 99.9323 138.799 99.995C138.742 100.057 138.714 100.141 138.714 100.247C138.714 100.393 138.768 100.503 138.875 100.577C138.984 100.651 139.122 100.688 139.289 100.688ZM142.309 97.3636V101H141.89V97.3636H142.309ZM145.989 97.3636L147.068 100.425H147.111L148.19 97.3636H148.652L147.317 101H146.862L145.527 97.3636H145.989ZM149.812 101V98.2727H150.231V101H149.812ZM150.025 97.8182C149.943 97.8182 149.873 97.7904 149.813 97.7347C149.755 97.6791 149.726 97.6122 149.726 97.5341C149.726 97.456 149.755 97.3891 149.813 97.3335C149.873 97.2778 149.943 97.25 150.025 97.25C150.106 97.25 150.176 97.2778 150.234 97.3335C150.293 97.3891 150.323 97.456 150.323 97.5341C150.323 97.6122 150.293 97.6791 150.234 97.7347C150.176 97.7904 150.106 97.8182 150.025 97.8182ZM151.648 101V98.2727H152.053V98.6989H152.089C152.145 98.5533 152.237 98.4402 152.364 98.3597C152.49 98.2781 152.642 98.2372 152.82 98.2372C153 98.2372 153.15 98.2781 153.269 98.3597C153.39 98.4402 153.484 98.5533 153.552 98.6989H153.58C153.65 98.558 153.755 98.4461 153.894 98.3633C154.034 98.2792 154.201 98.2372 154.397 98.2372C154.641 98.2372 154.84 98.3136 154.995 98.4663C155.15 98.6178 155.228 98.8539 155.228 99.1747V101H154.809V99.1747C154.809 98.9735 154.754 98.8297 154.644 98.7433C154.533 98.6568 154.404 98.6136 154.255 98.6136C154.063 98.6136 153.914 98.6716 153.809 98.7876C153.704 98.9025 153.651 99.0481 153.651 99.2244V101H153.225V99.1321C153.225 98.977 153.175 98.8522 153.074 98.7575C152.973 98.6616 152.844 98.6136 152.685 98.6136C152.576 98.6136 152.474 98.6426 152.38 98.7006C152.286 98.7586 152.21 98.8391 152.152 98.9421C152.096 99.0439 152.067 99.1617 152.067 99.2955V101H151.648ZM157.269 100.503L157.24 100.695C157.22 100.83 157.19 100.974 157.148 101.128C157.108 101.282 157.066 101.427 157.022 101.563C156.978 101.699 156.942 101.807 156.914 101.888H156.594C156.61 101.812 156.63 101.712 156.655 101.588C156.679 101.463 156.704 101.324 156.729 101.17C156.755 101.018 156.776 100.862 156.793 100.702L156.814 100.503H157.269ZM160.808 101V97.3636H162.037C162.321 97.3636 162.554 97.4122 162.737 97.5092C162.919 97.6051 163.054 97.7371 163.141 97.9052C163.229 98.0733 163.273 98.2644 163.273 98.4787C163.273 98.6929 163.229 98.8829 163.141 99.0487C163.054 99.2144 162.919 99.3446 162.738 99.4393C162.557 99.5328 162.326 99.5795 162.044 99.5795H161.05V99.1818H162.03C162.224 99.1818 162.38 99.1534 162.499 99.0966C162.618 99.0398 162.705 98.9593 162.758 98.8551C162.812 98.7498 162.84 98.6243 162.84 98.4787C162.84 98.3331 162.812 98.2058 162.758 98.0969C162.703 97.988 162.616 97.904 162.497 97.8448C162.377 97.7844 162.219 97.7543 162.023 97.7543H161.249V101H160.808ZM162.52 99.3665L163.415 101H162.903L162.023 99.3665H162.52ZM165.714 101.057C165.451 101.057 165.224 100.999 165.034 100.883C164.844 100.766 164.698 100.602 164.595 100.393C164.493 100.182 164.443 99.937 164.443 99.6577C164.443 99.3783 164.493 99.1321 164.595 98.919C164.698 98.7048 164.842 98.5379 165.025 98.4183C165.21 98.2976 165.425 98.2372 165.671 98.2372C165.813 98.2372 165.954 98.2609 166.092 98.3082C166.231 98.3556 166.357 98.4325 166.47 98.5391C166.584 98.6444 166.674 98.7841 166.742 98.9581C166.809 99.1321 166.843 99.3464 166.843 99.6009V99.7784H164.741V99.4162H166.417C166.417 99.2623 166.386 99.125 166.325 99.0043C166.264 98.8835 166.178 98.7882 166.065 98.7184C165.954 98.6486 165.823 98.6136 165.671 98.6136C165.504 98.6136 165.36 98.6551 165.238 98.7379C165.117 98.8196 165.024 98.9261 164.959 99.0575C164.894 99.1889 164.862 99.3298 164.862 99.4801V99.7216C164.862 99.9276 164.897 100.102 164.968 100.245C165.04 100.387 165.14 100.496 165.268 100.57C165.396 100.644 165.545 100.68 165.714 100.68C165.824 100.68 165.923 100.665 166.012 100.634C166.102 100.602 166.18 100.555 166.245 100.492C166.31 100.428 166.36 100.349 166.396 100.254L166.801 100.368C166.758 100.505 166.686 100.626 166.586 100.73C166.485 100.833 166.361 100.914 166.213 100.972C166.065 101.028 165.899 101.057 165.714 101.057ZM169.345 98.2727V98.6278H167.875V98.2727H169.345ZM168.315 101V97.8963C168.315 97.7401 168.352 97.6098 168.425 97.5057C168.499 97.4015 168.594 97.3234 168.711 97.2713C168.828 97.2192 168.952 97.1932 169.082 97.1932C169.185 97.1932 169.269 97.2015 169.334 97.218C169.4 97.2346 169.448 97.25 169.48 97.2642L169.359 97.6264C169.338 97.6193 169.308 97.6104 169.271 97.5998C169.234 97.5891 169.185 97.5838 169.125 97.5838C168.986 97.5838 168.886 97.6187 168.825 97.6886C168.764 97.7584 168.734 97.8608 168.734 97.9957V101H168.315ZM170.582 101V98.2727H171.001V101H170.582ZM170.795 97.8182C170.714 97.8182 170.643 97.7904 170.584 97.7347C170.526 97.6791 170.497 97.6122 170.497 97.5341C170.497 97.456 170.526 97.3891 170.584 97.3335C170.643 97.2778 170.714 97.25 170.795 97.25C170.877 97.25 170.947 97.2778 171.005 97.3335C171.064 97.3891 171.094 97.456 171.094 97.5341C171.094 97.6122 171.064 97.6791 171.005 97.7347C170.947 97.7904 170.877 97.8182 170.795 97.8182ZM172.838 99.3594V101H172.419V98.2727H172.824V98.6989H172.859C172.923 98.5604 173.02 98.4491 173.15 98.3651C173.281 98.2798 173.449 98.2372 173.655 98.2372C173.839 98.2372 174.001 98.2751 174.139 98.3509C174.278 98.4254 174.386 98.5391 174.463 98.6918C174.539 98.8433 174.578 99.035 174.578 99.267V101H174.159V99.2955C174.159 99.0812 174.103 98.9143 173.992 98.7947C173.881 98.674 173.728 98.6136 173.534 98.6136C173.4 98.6136 173.281 98.6426 173.175 98.7006C173.071 98.7586 172.989 98.8433 172.928 98.9545C172.868 99.0658 172.838 99.2008 172.838 99.3594ZM177.137 101.057C176.874 101.057 176.648 100.999 176.457 100.883C176.268 100.766 176.122 100.602 176.019 100.393C175.917 100.182 175.866 99.937 175.866 99.6577C175.866 99.3783 175.917 99.1321 176.019 98.919C176.122 98.7048 176.265 98.5379 176.448 98.4183C176.633 98.2976 176.848 98.2372 177.095 98.2372C177.237 98.2372 177.377 98.2609 177.515 98.3082C177.654 98.3556 177.78 98.4325 177.894 98.5391C178.007 98.6444 178.098 98.7841 178.165 98.9581C178.233 99.1321 178.266 99.3464 178.266 99.6009V99.7784H176.164V99.4162H177.84C177.84 99.2623 177.809 99.125 177.748 99.0043C177.688 98.8835 177.601 98.7882 177.489 98.7184C177.377 98.6486 177.246 98.6136 177.095 98.6136C176.928 98.6136 176.783 98.6551 176.661 98.7379C176.541 98.8196 176.448 98.9261 176.383 99.0575C176.317 99.1889 176.285 99.3298 176.285 99.4801V99.7216C176.285 99.9276 176.32 100.102 176.391 100.245C176.464 100.387 176.564 100.496 176.691 100.57C176.819 100.644 176.968 100.68 177.137 100.68C177.247 100.68 177.347 100.665 177.435 100.634C177.525 100.602 177.603 100.555 177.668 100.492C177.733 100.428 177.783 100.349 177.819 100.254L178.224 100.368C178.181 100.505 178.11 100.626 178.009 100.73C177.908 100.833 177.784 100.914 177.636 100.972C177.488 101.028 177.322 101.057 177.137 101.057ZM180.584 101.057C180.356 101.057 180.156 100.999 179.982 100.885C179.808 100.769 179.672 100.605 179.573 100.395C179.475 100.183 179.426 99.9323 179.426 99.6435C179.426 99.357 179.475 99.1084 179.573 98.8977C179.672 98.687 179.808 98.5243 179.984 98.4094C180.159 98.2946 180.361 98.2372 180.591 98.2372C180.768 98.2372 180.909 98.2668 181.012 98.326C181.116 98.384 181.195 98.4503 181.25 98.5249C181.305 98.5982 181.348 98.6586 181.379 98.706H181.415V97.3636H181.834V101H181.429V100.581H181.379C181.348 100.631 181.305 100.693 181.248 100.769C181.191 100.844 181.11 100.911 181.004 100.97C180.899 101.028 180.759 101.057 180.584 101.057ZM180.64 100.68C180.809 100.68 180.951 100.637 181.067 100.549C181.183 100.46 181.271 100.338 181.331 100.181C181.392 100.024 181.422 99.8423 181.422 99.6364C181.422 99.4328 181.392 99.2546 181.333 99.1019C181.274 98.948 181.186 98.8285 181.07 98.7433C180.954 98.6568 180.811 98.6136 180.64 98.6136C180.463 98.6136 180.315 98.6592 180.197 98.7504C180.079 98.8403 179.991 98.9628 179.932 99.1179C179.874 99.2718 179.845 99.4446 179.845 99.6364C179.845 99.8305 179.875 100.007 179.934 100.165C179.994 100.323 180.083 100.448 180.2 100.542C180.319 100.634 180.465 100.68 180.64 100.68ZM183.615 101.028C183.527 101.028 183.452 100.997 183.389 100.934C183.326 100.872 183.295 100.796 183.295 100.709C183.295 100.621 183.326 100.546 183.389 100.483C183.452 100.421 183.527 100.389 183.615 100.389C183.702 100.389 183.777 100.421 183.84 100.483C183.903 100.546 183.934 100.621 183.934 100.709C183.934 100.767 183.92 100.82 183.89 100.869C183.862 100.917 183.823 100.956 183.775 100.986C183.727 101.014 183.674 101.028 183.615 101.028Z" fill="#E6EDF3"/>
</svg>
